<svg viewBox="0 0 1280 760" xmlns="http://www.w3.org/2000/svg" font-family="Arial, Helvetica, sans-serif" stroke-linecap="round" stroke-linejoin="round">
  <defs>
    <marker id="m-blue" viewBox="0 0 10 8" refX="9.2" refY="4" markerWidth="8" markerHeight="8" orient="auto">
      <path d="M0,0.5 L9.2,4 L0,7.5Z" fill="#3d66b4"/>
    </marker>
    <marker id="m-green" viewBox="0 0 10 8" refX="9.2" refY="4" markerWidth="8" markerHeight="8" orient="auto">
      <path d="M0,0.5 L9.2,4 L0,7.5Z" fill="#2f8758"/>
    </marker>
    <marker id="m-purple" viewBox="0 0 10 8" refX="9.2" refY="4" markerWidth="8" markerHeight="8" orient="auto">
      <path d="M0,0.5 L9.2,4 L0,7.5Z" fill="#7b63c4"/>
    </marker>
    <marker id="m-rose" viewBox="0 0 10 8" refX="9.2" refY="4" markerWidth="8" markerHeight="8" orient="auto">
      <path d="M0,0.5 L9.2,4 L0,7.5Z" fill="#bf557f"/>
    </marker>
    <marker id="m-eco" viewBox="0 0 10 8" refX="9.2" refY="4" markerWidth="7" markerHeight="7" orient="auto">
      <path d="M0,0.5 L9.2,4 L0,7.5Z" fill="#2c6f4a"/>
    </marker>
    <marker id="m-teal" viewBox="0 0 10 8" refX="9.2" refY="4" markerWidth="8" markerHeight="8" orient="auto">
      <path d="M0,0.5 L9.2,4 L0,7.5Z" fill="#3a7f93"/>
    </marker>
  </defs>

  <rect x="0" y="0" width="1280" height="760" fill="#ffffff"/>

  <circle cx="160" cy="44" r="18" fill="#3d66b4"/>
  <text x="160" y="50" text-anchor="middle" fill="#ffffff" font-size="16" font-weight="700">1</text>
  <text x="160" y="82" text-anchor="middle" fill="#315ea8" font-size="21" font-weight="800">INPUTS</text>

  <circle cx="470" cy="44" r="18" fill="#b37736"/>
  <text x="470" y="50" text-anchor="middle" fill="#ffffff" font-size="16" font-weight="700">2</text>
  <text x="470" y="82" text-anchor="middle" fill="#ad6f2e" font-size="21" font-weight="800">CALIBRATION</text>

  <circle cx="770" cy="44" r="18" fill="#7b63c4"/>
  <text x="770" y="50" text-anchor="middle" fill="#ffffff" font-size="16" font-weight="700">3</text>
  <text x="770" y="82" text-anchor="middle" fill="#7259bf" font-size="20" font-weight="800">SEEDING &amp; ROUTING</text>

  <circle cx="1085" cy="44" r="18" fill="#2c6f4a"/>
  <text x="1085" y="50" text-anchor="middle" fill="#ffffff" font-size="16" font-weight="700">4</text>
  <text x="1085" y="82" text-anchor="middle" fill="#2c6f4a" font-size="21" font-weight="800">LIFECYCLE</text>

  <circle cx="1085" cy="448" r="18" fill="#3a7f93"/>
  <text x="1085" y="454" text-anchor="middle" fill="#ffffff" font-size="16" font-weight="700">5</text>
  <text x="1085" y="486" text-anchor="middle" fill="#3a7f93" font-size="21" font-weight="800">OUTPUTS</text>

  <rect x="44" y="112" width="232" height="166" rx="12" fill="#f5f8fe" stroke="#3d66b4" stroke-width="2.2"/>
  <rect x="44" y="112" width="232" height="34" rx="12" fill="#3d66b4"/>
  <text x="160" y="134" text-anchor="middle" fill="#ffffff" font-size="14" font-weight="700">SOURCE DOMAIN</text>
  <text x="160" y="186" text-anchor="middle" fill="#274583" font-size="18" font-weight="600">Known faults</text>
  <text x="160" y="223" text-anchor="middle" fill="#274583" font-size="18">Normal class</text>
  <text x="160" y="258" text-anchor="middle" fill="#274583" font-size="18">Labeled source data</text>

  <rect x="44" y="330" width="232" height="184" rx="12" fill="#f4faf6" stroke="#2f8758" stroke-width="2.2"/>
  <rect x="44" y="330" width="232" height="34" rx="12" fill="#2f8758"/>
  <text x="160" y="352" text-anchor="middle" fill="#ffffff" font-size="14" font-weight="700">TARGET DOMAIN</text>
  <text x="160" y="404" text-anchor="middle" fill="#22543a" font-size="18" font-weight="600">Normal support set</text>
  <text x="160" y="441" text-anchor="middle" fill="#22543a" font-size="18">Unlabeled target data</text>
  <text x="160" y="478" text-anchor="middle" fill="#22543a" font-size="18">Target sample pool</text>

  <rect x="358" y="214" width="226" height="206" rx="12" fill="#fffaf3" stroke="#b37736" stroke-width="2.2"/>
  <rect x="358" y="214" width="226" height="34" rx="12" fill="#b37736"/>
  <text x="471" y="236" text-anchor="middle" fill="#ffffff" font-size="13" font-weight="700">TARGET-NORMAL CALIBRATION</text>
  <text x="471" y="289" text-anchor="middle" fill="#5f3a13" font-size="18" font-weight="600">Residual reference space</text>
  <text x="471" y="327" text-anchor="middle" fill="#5f3a13" font-size="18">Normal baseline (mu)</text>
  <text x="471" y="365" text-anchor="middle" fill="#5f3a13" font-size="18">Direction + Energy</text>
  <rect x="394" y="383" width="154" height="42" rx="8" fill="#fde6a4" stroke="#c68b42" stroke-width="1.3"/>
  <text x="471" y="402" text-anchor="middle" fill="#6b4215" font-size="16" font-weight="700">Residual split</text>
  <text x="471" y="417" text-anchor="middle" fill="#8a5a28" font-size="13">direction and energy</text>

  <rect x="664" y="112" width="230" height="166" rx="12" fill="#f7f4fc" stroke="#7b63c4" stroke-width="2.2"/>
  <rect x="664" y="112" width="230" height="34" rx="12" fill="#7b63c4"/>
  <text x="779" y="134" text-anchor="middle" fill="#ffffff" font-size="14" font-weight="700">SOURCE SEEDS</text>
  <text x="779" y="186" text-anchor="middle" fill="#48348b" font-size="18" font-weight="600">Semantic priors</text>
  <text x="779" y="223" text-anchor="middle" fill="#48348b" font-size="18">Known-class anchors</text>
  <text x="779" y="258" text-anchor="middle" fill="#48348b" font-size="18">Prototype initialization</text>

  <rect x="664" y="330" width="230" height="184" rx="12" fill="#fdf4f7" stroke="#bf557f" stroke-width="2.2"/>
  <rect x="664" y="330" width="230" height="34" rx="12" fill="#bf557f"/>
  <text x="779" y="352" text-anchor="middle" fill="#ffffff" font-size="14" font-weight="700">TARGET DISCOVERY</text>
  <text x="779" y="404" text-anchor="middle" fill="#6c2746" font-size="18" font-weight="600">Fault scoring</text>
  <text x="779" y="441" text-anchor="middle" fill="#6c2746" font-size="18">Candidate discovery</text>
  <text x="779" y="478" text-anchor="middle" fill="#6c2746" font-size="18">Bootstrap initialization</text>

  <rect x="950" y="98" width="270" height="318" rx="12" fill="#f4faf6" stroke="#2c6f4a" stroke-width="2.2"/>
  <rect x="950" y="98" width="270" height="34" rx="12" fill="#2c6f4a"/>
  <text x="1085" y="120" text-anchor="middle" fill="#ffffff" font-size="14" font-weight="700">PROTOTYPE ECOSYSTEM</text>

  <rect x="986" y="156" width="96" height="68" rx="10" fill="#ffffff" stroke="#2c6f4a" stroke-width="1.8"/>
  <rect x="1088" y="156" width="96" height="68" rx="10" fill="#ffffff" stroke="#2c6f4a" stroke-width="1.8"/>
  <rect x="986" y="288" width="96" height="68" rx="10" fill="#ffffff" stroke="#2c6f4a" stroke-width="1.8"/>
  <rect x="1088" y="288" width="96" height="68" rx="10" fill="#ffffff" stroke="#2c6f4a" stroke-width="1.8"/>

  <text x="1034" y="196" text-anchor="middle" fill="#27563a" font-size="18" font-weight="700">Birth</text>
  <text x="1136" y="196" text-anchor="middle" fill="#27563a" font-size="18" font-weight="700">Mature</text>
  <text x="1034" y="328" text-anchor="middle" fill="#27563a" font-size="18" font-weight="700">Compete</text>
  <text x="1136" y="328" text-anchor="middle" fill="#27563a" font-size="18" font-weight="700">Prune</text>

  <path d="M1082,190 C1084,190 1085,190 1088,190" stroke="#2c6f4a" stroke-width="3.2" marker-end="url(#m-eco)"/>
  <path d="M1136,224 C1136,246 1136,264 1136,288" stroke="#2c6f4a" stroke-width="3.2" marker-end="url(#m-eco)"/>
  <path d="M1088,322 C1086,322 1085,322 1082,322" stroke="#2c6f4a" stroke-width="3.2" marker-end="url(#m-eco)"/>
  <path d="M1034,288 C1034,264 1034,246 1034,224" stroke="#2c6f4a" stroke-width="3.2" marker-end="url(#m-eco)"/>

  <text x="1085" y="262" text-anchor="middle" fill="#2c6f4a" font-size="17" font-weight="700">RDS feedback</text>
  <line x1="980" y1="382" x2="1190" y2="382" stroke="#c7e0d1" stroke-width="1.4" stroke-dasharray="5,5"/>
  <text x="1085" y="406" text-anchor="middle" fill="#2c6f4a" font-size="17">Stable prototype pool</text>

  <rect x="950" y="514" width="270" height="156" rx="12" fill="#f3fafb" stroke="#3a7f93" stroke-width="2.2"/>
  <rect x="950" y="514" width="270" height="34" rx="12" fill="#3a7f93"/>
  <text x="1085" y="536" text-anchor="middle" fill="#ffffff" font-size="14" font-weight="700">FINAL OUTPUTS</text>
  <rect x="980" y="570" width="8" height="8" rx="2" fill="#3d66b4"/>
  <text x="1006" y="579" fill="#255061" font-size="17">Binary fault detection</text>
  <rect x="980" y="611" width="8" height="8" rx="2" fill="#bf557f"/>
  <text x="1006" y="620" fill="#255061" font-size="17">Reference discovery</text>
  <rect x="980" y="652" width="8" height="8" rx="2" fill="#2c6f4a"/>
  <text x="1006" y="661" fill="#255061" font-size="17">RDS / Purity / Coverage</text>

  <path d="M276,195 C322,195 326,279 358,279" stroke="#3d66b4" stroke-width="4.1" fill="none" marker-end="url(#m-blue)"/>
  <path d="M276,422 C322,422 326,352 358,352" stroke="#2f8758" stroke-width="4.1" fill="none" marker-end="url(#m-green)"/>

  <path d="M584,287 C632,287 632,205 664,195" stroke="#7b63c4" stroke-width="3.4" fill="none" stroke-dasharray="9,8" marker-end="url(#m-purple)"/>
  <path d="M584,352 C632,352 632,412 664,422" stroke="#bf557f" stroke-width="3.4" fill="none" stroke-dasharray="9,8" marker-end="url(#m-rose)"/>

  <path d="M894,195 C926,195 934,224 950,236" stroke="#7b63c4" stroke-width="4.1" fill="none" marker-end="url(#m-purple)"/>
  <path d="M894,422 C926,422 934,318 950,306" stroke="#bf557f" stroke-width="4.1" fill="none" marker-end="url(#m-rose)"/>

  <path d="M1148,416 C1148,452 1148,474 1148,514" stroke="#3a7f93" stroke-width="4.1" fill="none" marker-end="url(#m-teal)"/>
</svg>
